<svg width="1762" height="147" viewBox="0 0 1762 147" fill="none" xmlns="http://www.w3.org/2000/svg">
<path fill-rule="evenodd" clip-rule="evenodd" d="M57.828 54.6853L92.4 58.4573C129.276 62.4387 148.343 77.1053 148.343 101.828C148.343 130.533 121.943 146.667 73.752 146.667C24.3053 146.667 0 130.533 0 97.848H33.7333C33.7333 112.096 48.4 120.057 74.5907 120.057C100.991 120.057 112.724 115.237 112.724 102.876C112.724 93.6573 104.343 89.676 89.2573 88L56.152 84.4387C21.5813 80.6667 4.19067 66.628 4.19067 42.5333C4.19067 16.7627 32.0573 0 71.6573 0C115.448 0 141.428 16.7627 141.428 44.4187H108.533C107.067 32.2667 95.124 25.9813 72.2853 25.9813C49.448 25.9813 38.972 31.4293 38.972 41.4853C38.972 50.2853 45.676 53.4293 57.828 54.6853ZM1036.1 117.752C1007.81 117.752 991.257 101.41 991.257 73.3336C991.257 45.2576 1007.81 28.9149 1036.1 28.9149C1058.1 28.9149 1071.09 37.5042 1075.7 54.4762H1111.73C1108.17 22.0002 1077.37 0.000244856 1036.1 0.000244856C986.857 0.000244856 954.801 28.9149 954.801 73.3336C954.801 117.962 986.647 146.667 1036.1 146.667C1079.05 146.667 1109.01 123.828 1112.15 88.8376H1076.11C1074.02 107.067 1059.35 117.752 1036.1 117.752ZM838.949 86.5335L864.705 19.0669H865.753L891.394 86.5335H838.949ZM837.886 3.56152L784.666 143.104H817.353L828.95 112.724H901.349L912.896 143.104H949.142L895.714 3.56152H837.886ZM315.543 3.56176H278.667L224.4 58.6671H208.057V3.56176H174.952V143.104H208.057V85.0671H224.4L278.037 143.104H320.991L251.76 68.3764L315.543 3.56176ZM408.99 3.56176H442.095V116.286H517.523V143.104H408.99V3.56176ZM572.838 3.56176H539.733V143.104H648.266V116.286H572.838V3.56176ZM703.581 30.3809H786.972V3.56219H670.476V143.105H703.581V91.7715H772.724V64.9529H703.581V30.3809ZM373.372 143.105H340.267V3.56221H373.372V143.105ZM1314.55 3.56213H1399.02V35.6195H1314.55V3.56213ZM1314.55 35.6195V111.047H1279.56V35.6195L1314.55 35.6195ZM1399.02 35.6195L1434.01 35.6195V111.047H1399.02V35.6195ZM1542.75 71.2379H1497.7V30.3805H1542.75C1558.26 30.3805 1567.89 38.3432 1567.89 50.9139C1567.89 63.4859 1558.26 71.2379 1542.75 71.2379ZM1602.26 50.9139C1602.26 21.7912 1579.63 3.56187 1542.75 3.56187H1464.39V143.105H1497.7V98.0565H1530.38L1567.89 143.105H1608.33L1565.6 91.7885C1588.75 86.2219 1602.26 71.6339 1602.26 50.9139ZM1726.5 3.56175L1686.9 65.5804L1647.3 3.56175H1608.75L1668.68 95.3338V143.104H1701.78V95.3338L1761.91 3.56175H1726.5ZM1175.64 30.3808H1123.26V3.56218H1261.33V30.3808H1208.74V143.105H1175.64V30.3808ZM1399.02 143.105H1314.55V111.048H1399.02V143.105Z" fill="black"/>
</svg>
